# xmcd
#
# Track frame offsets:
# 150
# 58236
# 75706
# 102587
# 140010
# 188310
# 234357
#
# Disc length: 3709 seconds
#
#
# Revision: 5
# Processed by: cddbd v1.5PL3 Copyright (c) Steve Scherf et al.
# Submitted via: FreeRIP 2.20 
#
DISCID=580e7b07
DTITLE=Olsen Brothers - Wings Of Love
DYEAR=2000
DGENRE=Folklore
TTITLE0=Fly On The Wings Of Love
TTITLE1=Stephen Rhodes - Angel Of Healing
TTITLE2=Stephen Rhodes - Angelic Love
TTITLE3=Anthony Miles - Celestial Light
TTITLE4=Philip Chapman - Everlasting Love
TTITLE5=Anthony Miles - Crystal Deva
TTITLE6=Stephen Rhodes - Crystal Blossoms
EXTD=YEAR: 2000
EXTT0=
EXTT1=
EXTT2=
EXTT3=
EXTT4=
EXTT5=
EXTT6=
PLAYORDER=
